<?xml version="1.0" encoding="UTF-8" standalone="no"?>
<!DOCTYPE svg PUBLIC "-//W3C//DTD SVG 1.1//EN" "http://www.w3.org/Graphics/SVG/1.1/DTD/svg11.dtd">
<svg version="1.1" xmlns="http://www.w3.org/2000/svg" xmlns:xlink="http://www.w3.org/1999/xlink" preserveAspectRatio="xMidYMid meet" viewBox="0 0 1365.333 1365.333" width="1365" height="1365"><defs><path d="M0 0L1365.33 0L1365.33 1365.33L0 1365.33L0 0Z" id="aGKsV43Lg"></path><path d="M1325.64 1348.11C1311.33 1362.42 1288.14 1362.42 1273.83 1348.11C1233.89 1308.18 1139.99 1214.28 1100.06 1174.35C1085.75 1160.04 1085.75 1136.84 1100.06 1122.53C1109.2 1113.39 1110.72 1111.87 1119.86 1102.73C1134.17 1088.42 1157.37 1088.42 1171.67 1102.73C1211.61 1142.67 1305.51 1236.56 1345.44 1276.5C1359.75 1290.81 1359.75 1314 1345.44 1328.31C1336.3 1337.45 1334.78 1338.97 1325.64 1348.11Z" id="aiwIXy0Cx"></path><path d="M1358.29 682.67C1358.29 1054.55 1056.36 1356.48 684.48 1356.48C312.59 1356.48 10.67 1054.55 10.67 682.67C10.67 310.78 312.59 8.86 684.48 8.86C1056.36 8.86 1358.29 310.78 1358.29 682.67Z" id="g47TInlxBO"></path><path d="M1261.56 685.1C1261.56 1003.61 1002.98 1262.19 684.48 1262.19C365.97 1262.19 107.39 1003.61 107.39 685.1C107.39 366.6 365.97 108.02 684.48 108.02C1002.98 108.02 1261.56 366.6 1261.56 685.1Z" id="beQCZa7m"></path><path d="M635.38 603.43C714.19 580.37 796.5 624.73 819.27 702.52C882.33 917.92 628.3 1108.33 630.04 1114.26C630.04 1114.26 630.04 1114.26 630.04 1114.26C628.3 1108.33 311.69 1084.95 248.64 869.53C225.87 791.74 271.28 709.99 350.07 686.93C428.86 663.87 508.9 700.42 531.66 778.22C508.89 700.44 556.6 626.49 635.38 603.43Z" id="b15rYbSXG3"></path></defs><g><g></g><g><use xlink:href="#aiwIXy0Cx" opacity="1" fill="#fff4e6" fill-opacity="1"></use><g><use xlink:href="#aiwIXy0Cx" opacity="1" fill-opacity="0" stroke="#000000" stroke-width="13.33" stroke-opacity="1"></use></g></g><g><use xlink:href="#g47TInlxBO" opacity="1" fill="#f5ece1" fill-opacity="1"></use><g><use xlink:href="#g47TInlxBO" opacity="1" fill-opacity="0" stroke="#000000" stroke-width="13.33" stroke-opacity="1"></use></g></g><g><use xlink:href="#beQCZa7m" opacity="1" fill="#956f5a" fill-opacity="1"></use><g><use xlink:href="#beQCZa7m" opacity="1" fill-opacity="0" stroke="#000000" stroke-width="13.33" stroke-opacity="1"></use></g></g><g><use xlink:href="#b15rYbSXG3" opacity="1" fill="#fff4e6" fill-opacity="1"></use><g><use xlink:href="#b15rYbSXG3" opacity="1" fill-opacity="0" stroke="#000000" stroke-width="13.33" stroke-opacity="1"></use></g></g></g></svg>